<?xml version="1.0" encoding="UTF-8"?>
<svg id="Capa_1" xmlns="http://www.w3.org/2000/svg" version="1.1" viewBox="0 0 378.5 94">
  <!-- Generator: Adobe Illustrator 30.2.1, SVG Export Plug-In . SVG Version: 2.1.1 Build 1)  -->
  <defs>
    <style>
      .st0, .st1, .st2, .st3, .st4 {
        fill-rule: evenodd;
      }

      .st0, .st5 {
        fill: #e8002e;
      }

      .st1 {
        fill: #dddde9;
      }

      .st2 {
        fill: #fb9b00;
      }

      .st3, .st6 {
        fill: #002064;
      }

      .st4 {
        fill: #b3b3ce;
      }
    </style>
  </defs>
  <rect class="st5" x="105.1" y="15" width="1.3" height="63.6"/>
  <rect class="st5" x="226" y="15" width="1.3" height="63.6"/>
  <g>
    <path class="st3" d="M39.9,22.3c0-3.6,2.9-6.5,6.5-6.5h4.9c13,0,23.6,10.6,23.6,23.6v38.3c-3.6,0-6.5-2.9-6.5-6.5v-31.8c0-9.4-7.7-17.1-17.1-17.1h-11.4ZM35,71.2c0,3.6-3,6.5-6.5,6.5h-4.9c-13.1,0-23.6-10.6-23.6-23.6V15.8c3.5,0,6.5,2.9,6.5,6.5v31.8c0,9.4,7.7,17.1,17.1,17.1h11.4Z"/>
    <path class="st4" d="M33.3,15c-4.4,0-8.2,3.6-8.2,8.2h13.1v-.8c0-3.2,1.9-6,4.5-7.3h-9.4ZM8.1,54.1c0,8.5,6.9,15.5,15.5,15.5h10.6c-7.7-3.1-13.1-10.7-13.1-19.5v-26.9c0-4.5-3.7-8.2-8.2-8.2H3.4c2.8,1.3,4.6,4.1,4.6,7.3v31.8ZM66.8,39.5c0-8.5-6.9-15.6-15.5-15.6h-10.7c7.7,3.2,13.1,10.8,13.1,19.6v26.9c0,4.5,3.7,8.2,8.2,8.2h9.4c-2.7-1.3-4.5-4.1-4.5-7.3v-31.8ZM41.5,78.5c4.4,0,8.2-3.6,8.2-8.2h-13.1v.8c0,3.2-1.9,6-4.5,7.3h9.4Z"/>
    <path class="st0" d="M38.3,64.7l-3.4-3.3c-1.2-1.2-2-2.9-2-4.7s.4-2.3.9-3.3l7.8-13.2c.7-1.2,1.1-2.7,1.1-4.2s0-.7,0-1.1l2.9,2.8c1.6,1.6,2.6,3.8,2.6,6.2s-.4,3.1-1.2,4.4l-7.5,12.8c-.6,1.1-1,2.4-1,3.7"/>
    <path class="st2" d="M39,31.2c1.2,1.2,2,2.9,2,4.7s-.4,2.3-.9,3.3l-7.8,13.2c-.6,1.2-1.1,2.6-1.1,4.2s0,.7,0,1.2l-2.1-2.1c-1.5-1.5-2.3-3.6-2.3-5.9s.4-3,1.1-4.3l7.5-12.7c.7-1.2,1.2-2.5,1.2-4l2.3,2.4Z"/>
  </g>
  <g>
    <path class="st1" d="M168.4,94l-9-8.7c-3.2-3.2-5.4-7.5-5.4-12.4s1-6.1,2.4-8.7l20.4-34.5c1.9-3.2,2.9-7,2.9-10.9s0-1.9-.2-2.9l7.5,7.3c4.1,4.1,6.8,10,6.8,16.3s-1,8-3.2,11.4l-19.7,33.5c-1.7,2.9-2.7,6.3-2.7,9.7M164.2,0c0,3.9-1.2,7.3-3.2,10.4l-19.7,33.3c-1.9,3.4-2.9,7-2.9,11.2,0,6.1,2.2,11.7,6.1,15.5l5.6,5.6c-.2-1.2-.2-2.2-.2-3.2,0-4.1,1.2-7.8,2.9-10.9l20.4-34.5c1.5-2.7,2.4-5.6,2.4-8.7,0-4.9-2.2-9.2-5.4-12.4l-6.1-6.3Z"/>
    <path class="st6" d="M164.5,30.2c0-9.8-4.1-15.2-14.9-15.2h-13.1v30.1h13.1c10.8,0,14.9-5.2,14.9-14.9M149.6,41h-6.9v-21.9h6.9c6.9,0,9,5.4,9,11.1s-2.1,10.8-9,10.8"/>
    <path class="st6" d="M186.4,48.5h-17.6v26.1c0,2.3,1.8,4.1,4,4.1h2v-13.1h7.1s0,0,0,0c.6,0,2.9,0,5.1,0,.2,0,.5,0,.8,0,3.8-.6,7.2-3.9,7.2-8.4s-3.8-8.5-8.6-8.5M184.4,61.5h-4.5c-2.1,0-4,1-5.1,2.7v-11.7h9.7c2.4,0,4.5,1.9,4.5,4.5s-2.1,4.5-4.5,4.5"/>
    <path class="st6" d="M182.7,19.1h9c2.1,0,4.1-1.8,4.1-4.1h-13.1c-10.8,0-14.9,5.4-14.9,15.2s4.1,14.9,14.9,14.9h13.1v-17h-16.2c0,2.1,1.8,3.9,4.1,3.9h5.9v9.3h-6.9c-6.9-.3-9-5.4-9-11.1s2.1-11.1,9-11.1"/>
    <path class="st6" d="M149.3,48.5h-2.1v26.1c0,2.2,1.9,4.1,4,4.1h2.1v-26.1c0-2.2-1.9-4-4-4"/>
  </g>
  <g>
    <path class="st6" d="M272.8,71c-1.9,0-3.8,0-5.6,0-1.8,0-3.6-.1-5.4-.2-1.7,0-3.5-.2-5.3-.3V23.6c1.9-.2,3.7-.3,5.5-.4,1.7,0,3.4-.2,5.1-.2,1.7,0,3.4,0,5.2,0,5.2,0,9.4.8,12.6,2.5,3.2,1.7,5.6,4.3,7.1,7.8,1.5,3.5,2.2,8.1,2.2,13.8s-.8,10-2.3,13.6c-1.6,3.5-3.9,6.2-7.1,7.8-3.2,1.7-7.2,2.5-11.9,2.5ZM273,65.1c3,0,5.5-.6,7.4-1.8,2-1.2,3.5-3.1,4.5-5.7,1-2.6,1.5-6.1,1.5-10.4s-.5-8.1-1.5-10.7c-1-2.6-2.5-4.5-4.5-5.7-2-1.2-4.6-1.8-7.8-1.8s-1.7,0-2.7,0c-1,0-2,0-3,.1-1,0-2,0-2.9.1v35.5c.7,0,1.4,0,2.2.1.8,0,1.6,0,2.4.1.8,0,1.6,0,2.3,0,.7,0,1.4,0,2.1,0Z"/>
    <path class="st6" d="M296.7,70.3l15.6-47.1h8.6l15.8,47.1h-8.2l-3.5-11h-17l-3.5,11h-7.7ZM309.5,53.1h14.2l-7.1-23.3-7.1,23.3Z"/>
    <path class="st6" d="M342.8,70.3V23.5c2.8-.2,5.3-.3,7.3-.4,2.1,0,3.8-.1,5.3-.2,1.4,0,2.5,0,3.3,0,3.9,0,7.2.3,9.7.9,2.6.6,4.6,1.5,6,2.7,1.4,1.2,2.5,2.9,3.1,4.9s.9,4.5.9,7.3-.3,5.5-1,7.6c-.6,2.1-1.7,3.9-3.1,5.2-1.4,1.3-3.2,2.3-5.5,2.9-2.2.6-5,1-8.2,1h-2.4c-.7,0-1.3,0-1.8,0-.6,0-1.1,0-1.7,0-.6,0-1.3,0-2-.1-.7,0-1.6,0-2.6,0v15.2h-7.5ZM350.2,29.2v20.1c.8,0,1.6,0,2.3,0,.7,0,1.4,0,2,0,.6,0,1.3,0,1.9,0h2.1c2.5,0,4.5-.2,6.1-.6,1.6-.4,2.8-1,3.7-1.8.9-.8,1.5-2,1.9-3.4s.6-3.1.6-5-.2-3.2-.6-4.4c-.4-1.2-1-2.2-1.8-3-.8-.8-2-1.4-3.5-1.7-1.5-.4-3.4-.6-5.7-.6h-1.7c-.6,0-1.2,0-1.8,0-.7,0-1.5,0-2.4.1-.9,0-2,0-3.2.1Z"/>
  </g>
</svg>