<?xml version="1.0" encoding="UTF-8"?>
<svg id="Capa_1" data-name="Capa 1" xmlns="http://www.w3.org/2000/svg" viewBox="0 0 448 192">
  <defs>
    <style>
      .cls-1 {
        fill: #001f60;
      }

      .cls-2 {
        fill: #dcdce9;
      }
    </style>
  </defs>
  <g>
    <path class="cls-2" d="M83.24,68.7c2.04-3.72,3.4-7.79,3.4-12.2,0-6.79-3.06-12.89-7.47-17.3l-8.48-8.82c0,5.43-1.7,10.18-4.41,14.59l-27.47,46.46c-2.71,4.74-4.07,9.83-4.07,15.6,0,8.48,3.06,16.27,8.48,21.71l7.8,7.8c-.34-1.69-.34-3.05-.34-4.42,0-5.76,1.69-10.85,4.07-15.26l28.48-48.15Z"/>
    <path class="cls-2" d="M102.57,62.6l-10.51-10.17c.34,1.36.34,2.71.34,4.07,0,5.43-1.35,10.85-4.07,15.25l-28.49,48.15c-2.03,3.74-3.4,7.81-3.4,12.21,0,6.78,3.06,12.89,7.47,17.3l12.54,12.21c0-4.75,1.36-9.5,3.73-13.56l27.48-46.8c3.04-4.74,4.4-10.17,4.4-15.93,0-8.83-3.74-16.96-9.5-22.73Z"/>
  </g>
  <g>
    <path class="cls-1" d="M50.28,51.33h-18.28v42.08h18.28c15.05,0,20.79-7.2,20.79-20.86s-5.74-21.22-20.79-21.22ZM50.28,87.65h-9.68v-30.56h9.68c9.68,0,12.54,7.55,12.54,15.46s-2.86,15.1-12.54,15.1Z"/>
    <path class="cls-1" d="M101.63,98.09h-24.63v36.38c0,3.27,2.48,5.7,5.64,5.7h2.75v-18.29h9.86s0,0,0,0c.8,0,4.07,0,7.12-.04.33-.01.7-.02,1.16-.1,5.37-.84,10.03-5.44,10.03-11.72,0-6.69-5.36-11.93-11.94-11.93ZM98.87,116.29h-6.31c-2.93,0-5.63,1.36-7.17,3.8v-16.34h13.48c3.32,0,6.31,2.7,6.31,6.26s-2.89,6.28-6.31,6.28Z"/>
    <path class="cls-1" d="M96.54,57.08h12.55c2.87,0,5.74-2.52,5.74-5.75h-18.29c-15.05,0-20.79,7.55-20.79,21.21s5.74,20.87,20.79,20.87h18.29v-23.74h-22.58c0,2.87,2.51,5.4,5.73,5.4h8.24v12.94h-9.67c-9.67-.35-12.54-7.55-12.54-15.47s2.87-15.46,12.54-15.46Z"/>
    <path class="cls-1" d="M49.91,98.09h-2.88v36.41c0,3.12,2.63,5.67,5.62,5.67h2.9v-36.44c0-3.04-2.6-5.64-5.63-5.64Z"/>
    <path class="cls-1" d="M132.24,89.24c.58.01,1.17.02,1.78.02,1.5,0,2.75-.27,3.75-.8,1-.53,1.75-1.36,2.24-2.47.49-1.11.74-2.54.74-4.28s-.24-3.23-.7-4.34c-.47-1.11-1.21-1.93-2.23-2.46s-2.34-.79-3.96-.79c-.56,0-1.1,0-1.63.02-.53.01-1.06.04-1.61.06-.55.03-1.12.07-1.72.13v14.76c.56.03,1.11.06,1.66.08s1.11.05,1.69.06ZM131.26,76.1c.28-.01.58-.03.9-.04s.64-.02.96-.03c.31,0,.6-.01.85-.01,1.01,0,1.83.19,2.46.56.63.37,1.1.97,1.42,1.8.32.83.47,1.95.47,3.36s-.16,2.45-.48,3.28-.8,1.43-1.42,1.81-1.41.57-2.34.57c-.21,0-.43,0-.66-.01-.23,0-.47-.01-.73-.02-.25,0-.5-.02-.75-.03s-.47-.03-.68-.04v-11.19Z"/>
    <path class="cls-1" d="M151.63,86.91c-.38.1-.79.19-1.23.26-.44.08-.89.14-1.35.19-.46.05-.89.07-1.31.07-.7,0-1.28-.11-1.75-.33-.46-.22-.81-.56-1.05-1.03-.24-.47-.36-1.09-.36-1.86v-.2c0-.06,0-.12.02-.18.83-.01,1.62-.03,2.37-.06.75-.03,1.45-.07,2.1-.12.65-.05,1.23-.09,1.72-.13.5-.03.91-.07,1.23-.09.01-.15.02-.32.03-.5,0-.18.01-.32.01-.42,0-1.77-.36-3.04-1.09-3.83-.73-.78-1.85-1.18-3.36-1.18-.77,0-1.48.11-2.13.33-.65.22-1.22.56-1.7,1.04-.48.48-.86,1.11-1.14,1.91-.27.8-.41,1.77-.41,2.9,0,.97.11,1.81.34,2.51s.56,1.29,1,1.73c.44.45.97.78,1.6,1,.62.22,1.35.33,2.18.33.6,0,1.17-.03,1.69-.08s1.03-.13,1.53-.23.95-.21,1.37-.34l-.29-1.7ZM144.99,80.76c.18-.4.4-.72.66-.96.26-.24.54-.4.85-.48s.62-.13.95-.13c.52,0,.95.09,1.28.27.34.18.59.49.76.93.17.43.26,1,.27,1.68-.17.01-.42.04-.76.06-.34.03-.73.05-1.19.07s-.96.04-1.5.06c-.55.02-1.11.03-1.68.03.06-.63.17-1.15.36-1.55Z"/>
    <path class="cls-1" d="M156.11,89.03c.41.07.79.13,1.16.17.36.04.71.06,1.03.06,1.18,0,2.15-.22,2.91-.66.76-.44,1.34-1.11,1.71-2.01.38-.9.57-2.05.57-3.45,0-1.81-.33-3.2-.99-4.17-.66-.97-1.6-1.46-2.82-1.46-.62,0-1.23.1-1.84.3-.61.2-1.24.51-1.88.92l-.06-1.07h-2.08v15.81h2.29v-4.44ZM156.11,80.33c.35-.22.67-.4.97-.54s.58-.23.86-.28c.28-.06.57-.08.86-.08.5,0,.93.14,1.27.42.34.28.61.71.79,1.28.18.57.27,1.31.27,2.21,0,1.04-.11,1.87-.34,2.49s-.56,1.07-1,1.35c-.44.27-1.01.41-1.69.41-.28,0-.59-.02-.91-.07-.33-.05-.69-.12-1.08-.2v-6.98Z"/>
    <path class="cls-1" d="M171.6,87.75c.13.5.35.88.66,1.14s.74.38,1.27.38c.31,0,.6-.04.86-.12.27-.08.51-.18.74-.3l-.21-1.68c-.08.04-.18.07-.28.09-.1.02-.19.03-.26.03-.2,0-.36-.08-.49-.23-.13-.15-.2-.45-.2-.88v-5.01c0-.8-.16-1.47-.48-2.02-.32-.55-.82-.96-1.48-1.23-.67-.27-1.52-.41-2.56-.41-.58,0-1.2.05-1.87.16s-1.32.26-1.93.45l.4,1.81c.41-.11.8-.2,1.19-.27.39-.07.76-.12,1.12-.15.36-.03.69-.04.97-.04.78,0,1.37.15,1.77.44.39.29.59.73.59,1.3v1.3c-1.12.08-2.1.2-2.93.35-.83.15-1.53.35-2.08.61-.55.26-.97.61-1.26,1.05-.29.44-.43,1.01-.43,1.69,0,.49.07.92.22,1.29s.35.69.62.96c.27.27.58.47.94.6s.75.2,1.19.2c.56,0,1.08-.07,1.55-.2s.9-.32,1.29-.56c.39-.24.76-.49,1.11-.76ZM168.49,87.66c-.45,0-.81-.13-1.07-.4s-.4-.67-.4-1.22c0-.39.1-.73.29-1,.2-.27.49-.49.88-.65.39-.16.86-.28,1.4-.37.54-.08,1.14-.15,1.8-.21v2.57c-.24.27-.52.49-.85.68-.33.19-.67.34-1.02.44-.35.11-.69.16-1.03.16Z"/>
    <path class="cls-1" d="M178.69,80.81c.53-.45,1.03-.76,1.5-.94s.93-.26,1.38-.26c.22,0,.47.02.74.05.27.04.53.09.78.16l.38-2.08c-.25-.08-.51-.14-.79-.18s-.54-.05-.79-.05c-.41,0-.8.06-1.17.17-.37.11-.73.28-1.08.52-.35.23-.73.54-1.14.94v-1.41h-2.08v11.34h2.27v-8.24Z"/>
    <path class="cls-1" d="M189.25,89.26c.45,0,.92-.04,1.42-.13s1.02-.21,1.57-.38l-.32-1.75c-.34.1-.66.18-.98.23-.32.06-.62.08-.91.08-.59,0-1.02-.15-1.28-.45-.27-.3-.4-.81-.4-1.52v-5.93h3.49v-1.7h-3.49v-2.59h-1.98l-.29,2.59-1.83.19v1.49h1.83v6.12c0,.86.12,1.56.35,2.1.23.55.59.96,1.06,1.23s1.07.41,1.77.41Z"/>
    <path class="cls-1" d="M193.96,88.46c.27.27.58.47.94.6s.75.2,1.19.2c.56,0,1.08-.07,1.55-.2s.9-.32,1.29-.56c.39-.24.76-.49,1.11-.76.13.5.35.88.66,1.14s.74.38,1.27.38c.31,0,.6-.04.86-.12.27-.08.51-.18.74-.3l-.21-1.68c-.08.04-.18.07-.28.09-.1.02-.19.03-.26.03-.2,0-.36-.08-.49-.23-.13-.15-.2-.45-.2-.88v-5.01c0-.8-.16-1.47-.48-2.02-.32-.55-.82-.96-1.48-1.23-.67-.27-1.52-.41-2.56-.41-.58,0-1.2.05-1.87.16s-1.32.26-1.93.45l.4,1.81c.41-.11.8-.2,1.19-.27.39-.07.76-.12,1.12-.15.36-.03.69-.04.97-.04.78,0,1.37.15,1.77.44.39.29.59.73.59,1.3v1.3c-1.12.08-2.1.2-2.93.35-.83.15-1.53.35-2.08.61-.55.26-.97.61-1.26,1.05-.29.44-.43,1.01-.43,1.69,0,.49.07.92.22,1.29s.35.69.62.96ZM195.75,85.05c.2-.27.49-.49.88-.65.39-.16.86-.28,1.4-.37.54-.08,1.14-.15,1.8-.21v2.57c-.24.27-.52.49-.85.68-.33.19-.67.34-1.02.44-.35.11-.69.16-1.03.16-.45,0-.81-.13-1.07-.4s-.4-.67-.4-1.22c0-.39.1-.73.29-1Z"/>
    <path class="cls-1" d="M207.15,80.28c.28-.15.55-.29.81-.41s.53-.21.81-.28c.28-.07.56-.11.84-.11.34,0,.62.06.84.17.22.11.4.26.52.43.12.18.21.38.26.61.06.23.08.46.08.68v7.68h2.27v-7.84c0-.15,0-.31-.02-.47-.01-.16-.04-.32-.08-.47.22-.14.47-.27.74-.39s.55-.22.85-.29c.3-.08.61-.12.94-.12.35,0,.64.05.86.16s.4.25.52.42.21.38.26.61c.06.23.08.47.08.7v7.7h2.27v-8.37c0-.35-.04-.68-.11-1-.07-.32-.18-.6-.33-.86-.15-.26-.34-.49-.57-.68-.23-.2-.51-.35-.83-.46-.32-.11-.71-.17-1.16-.17-.5,0-.99.06-1.45.19-.46.13-.89.28-1.28.47-.39.19-.79.41-1.2.66-.14-.28-.32-.51-.55-.69-.22-.18-.5-.33-.83-.44-.33-.11-.7-.17-1.12-.17s-.85.05-1.25.15c-.4.1-.8.23-1.19.41s-.79.39-1.2.64v-1.01h-2.08v11.34h2.29v-8.77Z"/>
    <path class="cls-1" d="M227.13,77.51c-.77,0-1.48.11-2.13.33-.65.22-1.22.56-1.7,1.04-.48.48-.86,1.11-1.14,1.91-.27.8-.41,1.77-.41,2.9,0,.97.11,1.81.34,2.51s.56,1.29,1,1.73c.44.45.97.78,1.6,1,.62.22,1.35.33,2.18.33.6,0,1.17-.03,1.69-.08s1.03-.13,1.53-.23.95-.21,1.37-.34l-.29-1.7c-.38.1-.79.19-1.23.26-.44.08-.89.14-1.35.19-.46.05-.89.07-1.31.07-.7,0-1.28-.11-1.75-.33-.46-.22-.81-.56-1.05-1.03-.24-.47-.36-1.09-.36-1.86v-.2c0-.06,0-.12.02-.18.83-.01,1.62-.03,2.37-.06.75-.03,1.45-.07,2.1-.12.65-.05,1.23-.09,1.72-.13.5-.03.91-.07,1.23-.09.01-.15.02-.32.03-.5,0-.18.01-.32.01-.42,0-1.77-.36-3.04-1.09-3.83-.73-.78-1.85-1.18-3.36-1.18ZM228.52,82.13c-.34.03-.73.05-1.19.07s-.96.04-1.5.06c-.55.02-1.11.03-1.68.03.06-.63.17-1.15.36-1.55.18-.4.4-.72.66-.96.26-.24.54-.4.85-.48s.62-.13.95-.13c.52,0,.95.09,1.28.27.34.18.59.49.76.93.17.43.26,1,.27,1.68-.17.01-.42.04-.76.06Z"/>
    <path class="cls-1" d="M235.62,80.26c.32-.17.64-.31.95-.43.31-.12.62-.21.93-.28.31-.07.62-.11.95-.11.62,0,1.08.16,1.4.47.32.32.47.79.47,1.42v7.72h2.27v-8.39c0-.66-.12-1.23-.36-1.7-.24-.48-.6-.84-1.07-1.08-.48-.24-1.07-.37-1.79-.37-.46,0-.91.05-1.35.15s-.86.23-1.27.4-.86.39-1.34.65v-.99h-2.08v11.34h2.29v-8.79Z"/>
    <path class="cls-1" d="M250.58,87.24c-.32.06-.62.08-.91.08-.59,0-1.02-.15-1.28-.45-.27-.3-.4-.81-.4-1.52v-5.93h3.49v-1.7h-3.49v-2.59h-1.98l-.29,2.59-1.83.19v1.49h1.83v6.12c0,.86.12,1.56.35,2.1.23.55.59.96,1.06,1.23s1.07.41,1.77.41c.45,0,.92-.04,1.42-.13s1.02-.21,1.57-.38l-.32-1.75c-.34.1-.66.18-.98.23Z"/>
    <path class="cls-1" d="M261.72,78.99c-.39-.48-.92-.85-1.58-1.1-.66-.25-1.47-.38-2.44-.38s-1.78.13-2.44.38-1.18.62-1.58,1.1c-.39.48-.68,1.09-.85,1.82-.18.73-.26,1.58-.26,2.57s.1,1.86.28,2.61c.19.74.49,1.36.89,1.84.41.48.94.84,1.59,1.08.65.24,1.44.36,2.37.36s1.73-.12,2.38-.36,1.17-.6,1.58-1.08c.41-.48.7-1.1.89-1.84.19-.74.28-1.61.28-2.61s-.09-1.84-.26-2.57c-.17-.73-.46-1.34-.85-1.82ZM260.19,85.82c-.19.61-.49,1.04-.89,1.3-.41.26-.94.39-1.6.39s-1.18-.13-1.6-.39c-.42-.26-.73-.69-.91-1.3s-.28-1.43-.28-2.45.09-1.83.26-2.43c.17-.6.47-1.02.88-1.28.41-.26.96-.39,1.65-.39s1.25.13,1.65.39c.4.26.69.69.86,1.28.17.6.26,1.41.26,2.43s-.1,1.84-.28,2.45Z"/>
    <path class="cls-1" d="M277.3,88.11l.27.97h2v-15.58h-2.29v4.25c-.38-.1-.75-.16-1.13-.19-.37-.03-.73-.04-1.06-.04-1.18,0-2.15.22-2.92.66s-1.34,1.11-1.71,2.01c-.37.9-.56,2.05-.56,3.45,0,1.81.33,3.2,1,4.17.67.97,1.61,1.46,2.83,1.46.62,0,1.21-.09,1.79-.28.57-.19,1.17-.48,1.79-.87ZM274.58,87.33c-.49,0-.91-.14-1.25-.42-.34-.28-.61-.71-.79-1.29-.18-.58-.27-1.31-.27-2.18,0-1.04.11-1.87.32-2.49s.54-1.07.99-1.34c.45-.27,1.02-.4,1.7-.4.28,0,.59.02.91.05.33.04.69.1,1.08.2v6.98c-.35.21-.67.38-.97.51-.29.13-.59.23-.87.28s-.57.08-.85.08Z"/>
    <path class="cls-1" d="M282.7,87.94c.44.45.97.78,1.6,1,.62.22,1.35.33,2.18.33.6,0,1.17-.03,1.69-.08s1.03-.13,1.53-.23.95-.21,1.37-.34l-.29-1.7c-.38.1-.79.19-1.23.26-.44.08-.89.14-1.35.19-.46.05-.89.07-1.31.07-.7,0-1.28-.11-1.75-.33-.46-.22-.81-.56-1.05-1.03-.24-.47-.36-1.09-.36-1.86v-.2c0-.06,0-.12.02-.18.83-.01,1.62-.03,2.37-.06.75-.03,1.45-.07,2.1-.12.65-.05,1.23-.09,1.72-.13.5-.03.91-.07,1.23-.09.01-.15.02-.32.03-.5,0-.18.01-.32.01-.42,0-1.77-.36-3.04-1.09-3.83-.73-.78-1.85-1.18-3.36-1.18-.77,0-1.48.11-2.13.33-.65.22-1.22.56-1.7,1.04-.48.48-.86,1.11-1.14,1.91-.27.8-.41,1.77-.41,2.9,0,.97.11,1.81.34,2.51s.56,1.29,1,1.73ZM284.12,80.76c.18-.4.4-.72.66-.96.26-.24.54-.4.85-.48s.62-.13.95-.13c.52,0,.95.09,1.28.27.34.18.59.49.76.93.17.43.26,1,.27,1.68-.17.01-.42.04-.76.06-.34.03-.73.05-1.19.07s-.96.04-1.5.06c-.55.02-1.11.03-1.68.03.06-.63.17-1.15.36-1.55Z"/>
    <path class="cls-1" d="M135.8,98.41l-7.75,23.37h3.84l1.75-5.46h8.44l1.75,5.46h4.07l-7.85-23.37h-4.27ZM134.38,113.24l3.51-11.55,3.51,11.55h-7.02Z"/>
    <path class="cls-1" d="M160.26,103.61c-.97,0-1.94.16-2.9.48-.96.32-1.95.8-2.96,1.44l-.1-1.69h-3.28v24.89h3.61v-6.98c.64.11,1.25.2,1.82.26.57.07,1.11.1,1.62.1,1.85,0,3.38-.35,4.58-1.04s2.1-1.75,2.7-3.16c.6-1.41.89-3.22.89-5.43,0-2.85-.52-5.04-1.56-6.57-1.04-1.53-2.52-2.3-4.44-2.3ZM162.01,116.7c-.35.98-.88,1.69-1.57,2.12s-1.58.65-2.67.65c-.44,0-.92-.04-1.44-.12-.52-.08-1.09-.18-1.7-.31v-10.99c.55-.35,1.06-.63,1.52-.84.46-.21.92-.36,1.36-.45.44-.09.89-.13,1.36-.13.79,0,1.46.22,2,.66.54.44.95,1.11,1.24,2.02.29.91.43,2.06.43,3.48,0,1.63-.18,2.94-.53,3.92Z"/>
    <path class="cls-1" d="M183.68,105.94c-.62-.76-1.45-1.34-2.48-1.74-1.04-.4-2.32-.6-3.84-.6s-2.8.2-3.84.6c-1.04.4-1.86.98-2.48,1.74-.62.76-1.06,1.72-1.34,2.86-.28,1.15-.41,2.49-.41,4.04s.15,2.94.45,4.11c.3,1.17.77,2.13,1.41,2.9.64.76,1.47,1.33,2.5,1.7,1.03.37,2.27.56,3.72.56s2.72-.19,3.74-.56c1.01-.38,1.84-.94,2.48-1.7.64-.76,1.11-1.73,1.41-2.9.3-1.17.45-2.54.45-4.11s-.14-2.89-.41-4.04c-.28-1.15-.72-2.1-1.34-2.86ZM181.28,116.7c-.3.96-.77,1.64-1.41,2.05-.64.41-1.48.61-2.52.61s-1.85-.2-2.52-.61-1.14-1.09-1.44-2.05c-.3-.96-.45-2.25-.45-3.86s.14-2.89.41-3.82c.27-.94.74-1.61,1.39-2.02.65-.41,1.52-.61,2.6-.61s1.97.2,2.6.61c.63.41,1.08,1.08,1.36,2.02s.41,2.21.41,3.82-.15,2.9-.45,3.86Z"/>
    <polygon class="cls-1" points="195.97 118.7 191.07 103.84 187.1 104.01 193.82 121.78 194.52 121.78 192.3 128.7 195.97 128.83 204.08 104.01 200.41 103.84 195.97 118.7"/>
    <path class="cls-1" d="M220.26,105.94c-.62-.76-1.45-1.34-2.48-1.74-1.04-.4-2.32-.6-3.84-.6s-2.8.2-3.84.6c-1.04.4-1.86.98-2.48,1.74-.62.76-1.06,1.72-1.34,2.86-.28,1.15-.41,2.49-.41,4.04s.15,2.94.45,4.11c.3,1.17.77,2.13,1.41,2.9.64.76,1.47,1.33,2.5,1.7,1.03.37,2.27.56,3.72.56s2.72-.19,3.74-.56c1.01-.38,1.84-.94,2.48-1.7.64-.76,1.11-1.73,1.41-2.9.3-1.17.45-2.54.45-4.11s-.14-2.89-.41-4.04c-.28-1.15-.72-2.1-1.34-2.86ZM217.86,116.7c-.3.96-.77,1.64-1.41,2.05-.64.41-1.48.61-2.52.61s-1.85-.2-2.52-.61-1.14-1.09-1.44-2.05c-.3-.96-.45-2.25-.45-3.86s.14-2.89.41-3.82c.27-.94.74-1.61,1.39-2.02.65-.41,1.52-.61,2.6-.61s1.97.2,2.6.61c.63.41,1.08,1.08,1.36,2.02s.41,2.21.41,3.82-.15,2.9-.45,3.86Z"/>
    <path class="cls-1" d="M250.53,118.95c-.17.03-.3.05-.41.05-.31,0-.57-.12-.78-.36-.21-.24-.31-.71-.31-1.39v-7.88c0-1.26-.25-2.32-.76-3.18-.51-.86-1.29-1.51-2.33-1.94-1.05-.43-2.39-.65-4.02-.65-.91,0-1.89.08-2.95.25-1.06.17-2.07.4-3.05.71l.63,2.85c.64-.18,1.26-.32,1.87-.43.61-.11,1.2-.19,1.77-.23.57-.04,1.08-.07,1.52-.07,1.24,0,2.16.23,2.78.7.62.46.93,1.15.93,2.05v2.05c-1.77.13-3.31.31-4.62.55-1.31.23-2.41.55-3.28.96s-1.53.96-1.99,1.65c-.45.7-.68,1.58-.68,2.67,0,.77.12,1.45.35,2.04.23.59.56,1.09.98,1.51.42.42.91.73,1.47.94.56.21,1.19.31,1.87.31.88,0,1.69-.11,2.43-.31.74-.21,1.42-.5,2.04-.88s1.2-.77,1.76-1.19c.2.79.55,1.39,1.04,1.79.5.4,1.16.6,2,.6.48,0,.94-.06,1.36-.18s.81-.28,1.16-.48l-.33-2.65c-.13.07-.28.12-.45.15ZM245.42,117.58c-.38.42-.82.78-1.34,1.08-.52.3-1.05.53-1.6.7-.55.17-1.09.25-1.62.25-.71,0-1.27-.21-1.69-.63-.42-.42-.63-1.06-.63-1.92,0-.62.15-1.14.46-1.57s.77-.77,1.39-1.03,1.35-.45,2.2-.58c.85-.13,1.79-.24,2.83-.33v4.04Z"/>
    <path class="cls-1" d="M260.14,118.9c-.26.04-.52.07-.76.07-.31,0-.6-.05-.88-.17-.28-.11-.49-.35-.65-.73-.15-.38-.23-.92-.23-1.62v-19.17h-3.61v19.46c0,1.37.18,2.44.53,3.23.35.78.85,1.34,1.49,1.66.64.32,1.42.48,2.35.48.55,0,1.09-.06,1.61-.17.52-.11.98-.26,1.37-.46l-.36-2.78c-.31.09-.6.15-.86.2Z"/>
    <path class="cls-1" d="M290.12,100.07c-.72-.62-1.72-1.07-3-1.36-1.28-.29-2.89-.43-4.83-.43-.4,0-.95,0-1.66.02-.71.01-1.58.04-2.61.08-1.04.04-2.25.11-3.64.2v23.2h3.71v-7.51c.49,0,.91.01,1.27.03.36.02.7.04.99.05.3.01.58.02.86.03.28.01.58.02.91.02h1.19c1.59,0,2.94-.16,4.06-.48,1.11-.32,2.02-.81,2.71-1.46s1.2-1.51,1.52-2.57c.32-1.06.48-2.32.48-3.77s-.15-2.65-.45-3.64c-.3-.99-.81-1.8-1.52-2.42ZM288.05,108.53c-.2.7-.52,1.25-.96,1.67-.44.42-1.05.72-1.84.91-.78.19-1.79.28-3.03.28h-1.06c-.31,0-.62,0-.94-.02-.32-.01-.65-.02-.99-.03-.34-.01-.72-.02-1.14-.02v-9.96c.6-.02,1.12-.04,1.57-.05.45-.01.84-.03,1.18-.05.33-.02.63-.03.91-.03h.84c1.15,0,2.1.09,2.85.28.75.19,1.33.47,1.74.86.41.39.71.88.89,1.47.19.6.28,1.32.28,2.18,0,.97-.1,1.8-.3,2.5Z"/>
    <path class="cls-1" d="M309.27,105.94c-.62-.76-1.45-1.34-2.48-1.74-1.04-.4-2.32-.6-3.84-.6s-2.8.2-3.84.6c-1.04.4-1.86.98-2.48,1.74-.62.76-1.06,1.72-1.34,2.86-.28,1.15-.41,2.49-.41,4.04s.15,2.94.45,4.11c.3,1.17.77,2.13,1.41,2.9.64.76,1.47,1.33,2.5,1.7,1.03.37,2.27.56,3.72.56s2.72-.19,3.74-.56c1.01-.38,1.84-.94,2.48-1.7.64-.76,1.11-1.73,1.41-2.9.3-1.17.45-2.54.45-4.11s-.14-2.89-.41-4.04c-.28-1.15-.72-2.1-1.34-2.86ZM306.87,116.7c-.3.96-.77,1.64-1.41,2.05-.64.41-1.48.61-2.52.61s-1.85-.2-2.52-.61-1.14-1.09-1.44-2.05c-.3-.96-.45-2.25-.45-3.86s.14-2.89.41-3.82c.27-.94.74-1.61,1.39-2.02.65-.41,1.52-.61,2.6-.61s1.97.2,2.6.61c.63.41,1.08,1.08,1.36,2.02.28.94.41,2.21.41,3.82s-.15,2.9-.45,3.86Z"/>
    <path class="cls-1" d="M325.55,113.09c-.48-.39-1.06-.72-1.72-.99-.66-.28-1.4-.52-2.22-.74-.64-.18-1.21-.34-1.72-.5-.51-.15-.94-.33-1.31-.51-.36-.19-.64-.41-.83-.68s-.28-.61-.28-1.03c0-.68.28-1.22.84-1.61.56-.39,1.41-.58,2.53-.58.66,0,1.27.03,1.82.1.55.07,1.06.15,1.54.26.47.11.94.23,1.41.36l.5-2.71c-.46-.15-.98-.3-1.54-.43-.56-.13-1.15-.24-1.75-.31-.61-.08-1.26-.12-1.97-.12-2.25,0-3.96.46-5.11,1.37-1.16.92-1.74,2.23-1.74,3.96,0,.71.1,1.33.31,1.87.21.54.53,1.02.96,1.44.43.42.94.78,1.54,1.08s1.28.54,2.05.71c.77.18,1.44.36,2.02.56s1.05.41,1.44.63c.39.22.68.47.88.76.2.29.3.64.3,1.06,0,.75-.29,1.32-.88,1.72-.58.4-1.48.6-2.7.6-.49,0-.99-.02-1.52-.07s-1.06-.11-1.59-.2c-.53-.09-1.03-.19-1.51-.31-.48-.12-.89-.25-1.24-.38l-.53,2.68c.62.22,1.27.41,1.95.56.68.15,1.4.27,2.14.35.74.08,1.47.12,2.2.12.84,0,1.62-.07,2.35-.2.73-.13,1.38-.34,1.97-.61.58-.28,1.1-.62,1.56-1.03.45-.41.79-.92,1.01-1.52s.33-1.29.33-2.04c0-.86-.13-1.58-.38-2.17-.25-.58-.62-1.07-1.11-1.46Z"/>
    <path class="cls-1" d="M344.99,105.7c.2,0,.39,0,.58.02.19.01.37.04.55.08l.4-2.81c-.24-.04-.48-.08-.71-.12-.23-.03-.48-.05-.74-.05-.86,0-1.6.19-2.2.56-.45.28-.82.66-1.11,1.13-1.12-.59-2.56-.9-4.34-.9-2.34,0-4.1.5-5.28,1.49-1.18.99-1.77,2.46-1.77,4.4s.59,3.38,1.77,4.37c.08.07.19.12.27.18-.7.41-1.25.88-1.65,1.43-.44.61-.66,1.34-.66,2.2,0,.82.21,1.51.65,2.07.23.29.51.55.83.77-.4.25-.78.51-1.08.8-.44.42-.76.88-.96,1.37-.2.5-.3,1.05-.3,1.67,0,1.57.66,2.74,1.97,3.53,1.31.78,3.26,1.18,5.84,1.18,1.96,0,3.63-.24,5-.71,1.37-.47,2.41-1.16,3.13-2.05s1.08-1.97,1.08-3.23c0-1.5-.46-2.65-1.37-3.44s-2.27-1.19-4.06-1.19h-5.4c-.86,0-1.5-.15-1.9-.45-.41-.3-.61-.7-.61-1.21s.15-.93.46-1.27c.2-.22.46-.41.76-.6.93.29,2.01.45,3.28.45,2.3,0,4.04-.5,5.25-1.49s1.8-2.45,1.8-4.37c0-1.35-.3-2.46-.88-3.36.07-.06.14-.13.22-.17.35-.19.75-.28,1.19-.28ZM335.52,121.45h4.17c.77,0,1.39.08,1.85.23s.8.38,1.01.66c.21.29.31.66.31,1.13,0,.62-.22,1.15-.66,1.61-.44.45-1.08.8-1.9,1.04-.83.24-1.83.36-2.99.36s-2.12-.11-2.86-.33c-.74-.22-1.29-.54-1.64-.96-.35-.42-.53-.94-.53-1.56,0-.42.07-.79.21-1.11.14-.32.36-.61.66-.86.15-.13.32-.25.52-.37.56.1,1.17.16,1.85.16ZM340.07,112.13c-.59.54-1.47.81-2.67.81s-2.09-.27-2.7-.81c-.61-.54-.91-1.42-.91-2.63s.3-2.13.91-2.68c.61-.55,1.51-.83,2.7-.83s2.08.28,2.67.83c.58.55.88,1.45.88,2.68s-.29,2.09-.88,2.63Z"/>
    <path class="cls-1" d="M358.1,103.61c-.64,0-1.25.09-1.84.26-.58.18-1.15.45-1.7.81s-1.15.86-1.79,1.47v-2.22h-3.28v17.84h3.57v-12.98c.84-.71,1.63-1.2,2.37-1.47.74-.28,1.46-.41,2.17-.41.35,0,.74.03,1.16.08.42.06.83.14,1.22.25l.6-3.28c-.4-.13-.81-.23-1.24-.28-.43-.05-.84-.08-1.24-.08Z"/>
    <path class="cls-1" d="M378.13,118.95c-.17.03-.3.05-.41.05-.31,0-.57-.12-.78-.36-.21-.24-.31-.71-.31-1.39v-7.88c0-1.26-.25-2.32-.76-3.18-.51-.86-1.29-1.51-2.33-1.94-1.05-.43-2.39-.65-4.02-.65-.91,0-1.89.08-2.95.25-1.06.17-2.07.4-3.05.71l.63,2.85c.64-.18,1.26-.32,1.87-.43.61-.11,1.2-.19,1.77-.23.57-.04,1.08-.07,1.52-.07,1.24,0,2.16.23,2.78.7.62.46.93,1.15.93,2.05v2.05c-1.77.13-3.31.31-4.62.55-1.31.23-2.41.55-3.28.96s-1.53.96-1.99,1.65c-.45.7-.68,1.58-.68,2.67,0,.77.12,1.45.35,2.04.23.59.56,1.09.98,1.51.42.42.91.73,1.47.94.56.21,1.19.31,1.87.31.88,0,1.69-.11,2.43-.31.74-.21,1.42-.5,2.04-.88s1.2-.77,1.76-1.19c.2.79.55,1.39,1.04,1.79.5.4,1.16.6,2,.6.48,0,.94-.06,1.36-.18s.81-.28,1.16-.48l-.33-2.65c-.13.07-.28.12-.45.15ZM373.01,117.58c-.38.42-.82.78-1.34,1.08-.52.3-1.05.53-1.6.7-.55.17-1.09.25-1.62.25-.71,0-1.27-.21-1.69-.63-.42-.42-.63-1.06-.63-1.92,0-.62.15-1.14.46-1.57s.77-.77,1.39-1.03,1.35-.45,2.2-.58c.85-.13,1.79-.24,2.83-.33v4.04Z"/>
    <path class="cls-1" d="M392.49,103.97c-.6-.15-1.19-.25-1.77-.3-.59-.04-1.14-.07-1.67-.07-1.85,0-3.39.35-4.6,1.04-1.21.7-2.11,1.75-2.7,3.16-.58,1.41-.88,3.22-.88,5.43,0,2.85.52,5.04,1.57,6.57,1.05,1.53,2.53,2.3,4.45,2.3.97,0,1.91-.15,2.81-.45.9-.3,1.84-.76,2.81-1.37l.43,1.52h3.14v-24.53h-3.61v6.69ZM392.49,117.68c-.55.33-1.06.6-1.52.81-.46.21-.92.36-1.37.45-.45.09-.9.13-1.34.13-.77,0-1.43-.22-1.97-.66s-.95-1.12-1.24-2.04c-.29-.92-.43-2.06-.43-3.43,0-1.63.17-2.94.5-3.92.33-.98.85-1.68,1.56-2.1.71-.42,1.6-.63,2.68-.63.44,0,.92.03,1.44.08.52.06,1.09.16,1.7.31v10.99Z"/>
    <path class="cls-1" d="M415.59,108.81c-.28-1.15-.72-2.1-1.34-2.86-.62-.76-1.45-1.34-2.48-1.74-1.04-.4-2.32-.6-3.84-.6s-2.8.2-3.84.6c-1.04.4-1.86.98-2.48,1.74-.62.76-1.06,1.72-1.34,2.86-.28,1.15-.41,2.49-.41,4.04s.15,2.94.45,4.11c.3,1.17.77,2.13,1.41,2.9.64.76,1.47,1.33,2.5,1.7,1.03.37,2.27.56,3.72.56s2.72-.19,3.74-.56c1.01-.38,1.84-.94,2.48-1.7.64-.76,1.11-1.73,1.41-2.9.3-1.17.45-2.54.45-4.11s-.14-2.89-.41-4.04ZM411.85,116.7c-.3.96-.77,1.64-1.41,2.05-.64.41-1.48.61-2.52.61s-1.85-.2-2.52-.61-1.14-1.09-1.44-2.05c-.3-.96-.45-2.25-.45-3.86s.14-2.89.41-3.82c.27-.94.74-1.61,1.39-2.02.65-.41,1.52-.61,2.6-.61s1.97.2,2.6.61c.63.41,1.08,1.08,1.36,2.02s.41,2.21.41,3.82-.15,2.9-.45,3.86Z"/>
  </g>
</svg>