<?xml version="1.0" encoding="UTF-8"?>
<svg id="Capa_1" data-name="Capa 1" xmlns="http://www.w3.org/2000/svg" viewBox="0 0 448 32">
  <defs>
    <style>
      .cls-1 {
        fill: #b3b3ce;
      }
    </style>
  </defs>
  <g>
    <path class="cls-1" d="M41.16,22.34h-2.98c-2.47,0-4.47-2.01-4.47-4.47v-8.29c0-.93-.76-1.7-1.71-1.7v9.99c0,3.4,2.78,6.18,6.18,6.18h1.27c.94,0,1.71-.77,1.71-1.7Z"/>
    <path class="cls-1" d="M41.58,22.34c0,.84-.5,1.57-1.2,1.92h2.47c.35,0,.67-.08.96-.23.69-.35,1.17-1.07,1.17-1.9h-3.4v.21Z"/>
    <path class="cls-1" d="M34.13,9.58v8.3c0,2.23,1.82,4.04,4.05,4.04h2.77c-.42-.17-.82-.39-1.17-.67-1.36-1.01-2.24-2.62-2.24-4.44v-7.02c0-1.17-.95-2.13-2.13-2.13h-2.48c.72.35,1.2,1.07,1.2,1.92Z"/>
    <path class="cls-1" d="M45.4,7.88h-1.27c-.94,0-1.71.77-1.71,1.7h2.98c2.47,0,4.47,2.01,4.47,4.47v8.29c0,.93.76,1.7,1.71,1.7v-9.99c0-3.4-2.78-6.18-6.18-6.18Z"/>
    <path class="cls-1" d="M42,9.58c0-.84.5-1.57,1.2-1.92h-2.47c-.35,0-.67.08-.96.23-.69.35-1.17,1.07-1.17,1.9h3.4v-.21Z"/>
    <path class="cls-1" d="M49.45,22.34v-8.3c0-2.23-1.82-4.04-4.05-4.04h-2.77c.42.17.82.39,1.17.67,1.36,1.01,2.24,2.62,2.24,4.44v7.02c0,1.17.95,2.13,2.13,2.13h2.48c-.72-.35-1.2-1.07-1.2-1.92Z"/>
    <path class="cls-1" d="M40.83,17.66c-.15.26-.24.55-.24.86,0,.49.2.93.53,1.24l.87.88c0-.36.1-.69.28-.97l1.97-3.35c.2-.33.31-.72.31-1.14,0-.63-.27-1.21-.69-1.61l-.73-.73c0,.09.02.19.02.28,0,.39-.1.77-.29,1.09l-2.03,3.45Z"/>
    <path class="cls-1" d="M41.58,11.28c0,.37-.11.72-.29,1.02l-1.96,3.32c-.19.33-.3.72-.3,1.12,0,.6.24,1.15.62,1.55l.55.55c-.02-.11-.03-.21-.03-.32,0-.39.11-.76.29-1.08l2.02-3.43c.16-.26.24-.56.24-.87,0-.49-.2-.92-.51-1.22l-.62-.63Z"/>
  </g>
  <g>
    <path class="cls-1" d="M73.79,18.39c.2-.23.46-.44.79-.63s.69-.37,1.08-.54c.39-.18.78-.37,1.18-.58.39-.21.75-.46,1.08-.74.33-.28.59-.61.79-1.01.2-.39.3-.86.3-1.4,0-.65-.16-1.22-.48-1.71-.32-.49-.77-.87-1.35-1.14-.58-.27-1.28-.41-2.09-.41-.94,0-1.72.17-2.34.5-.62.33-1.09.77-1.4,1.33-.31.56-.47,1.18-.48,1.87h2.08c.09-.63.32-1.1.7-1.42.38-.31.84-.47,1.38-.47s.93.14,1.24.41c.3.27.45.63.45,1.06,0,.34-.1.63-.31.88-.2.25-.47.47-.81.68-.34.2-.71.4-1.11.6-.4.2-.8.41-1.21.63-.4.22-.77.48-1.1.78-.34.3-.61.64-.81,1.04-.2.4-.31.87-.31,1.42v1.63h7.92v-1.84h-5.5v-.1c0-.33.1-.61.3-.84Z"/>
    <path class="cls-1" d="M84.52,10.23c-.86,0-1.59.22-2.22.65-.62.43-1.1,1.06-1.44,1.89-.34.83-.51,1.84-.51,3.04,0,1.79.37,3.15,1.1,4.1.73.95,1.75,1.43,3.06,1.43s2.32-.48,3.05-1.43c.73-.95,1.1-2.32,1.1-4.11s-.37-3.17-1.11-4.13c-.74-.96-1.75-1.44-3.04-1.44ZM85.93,18.69c-.3.57-.77.86-1.41.86s-1.12-.29-1.43-.87c-.31-.58-.46-1.54-.46-2.88s.16-2.35.47-2.95c.31-.6.78-.9,1.42-.9s1.11.3,1.41.89c.3.59.46,1.58.46,2.96s-.15,2.31-.45,2.88Z"/>
    <path class="cls-1" d="M92.89,18.39c.2-.23.46-.44.79-.63s.69-.37,1.08-.54c.39-.18.78-.37,1.18-.58.39-.21.75-.46,1.08-.74.33-.28.59-.61.79-1.01.2-.39.3-.86.3-1.4,0-.65-.16-1.22-.48-1.71-.32-.49-.77-.87-1.35-1.14-.58-.27-1.28-.41-2.09-.41-.94,0-1.72.17-2.34.5-.62.33-1.09.77-1.4,1.33-.31.56-.47,1.18-.48,1.87h2.08c.09-.63.32-1.1.7-1.42.38-.31.84-.47,1.38-.47s.93.14,1.24.41c.3.27.45.63.45,1.06,0,.34-.1.63-.31.88-.2.25-.47.47-.81.68-.34.2-.71.4-1.11.6-.4.2-.8.41-1.21.63-.4.22-.77.48-1.1.78-.34.3-.61.64-.81,1.04-.2.4-.31.87-.31,1.42v1.63h7.92v-1.84h-5.5v-.1c0-.33.1-.61.3-.84Z"/>
    <path class="cls-1" d="M106.25,14.75c-.55-.27-1.19-.41-1.92-.41-.34,0-.66.04-.98.13s-.6.22-.85.38c-.25.17-.46.37-.63.61-.07-.7-.03-1.32.12-1.84.15-.53.4-.94.74-1.23.34-.29.77-.44,1.29-.44.47,0,.86.12,1.17.35.31.24.53.58.66,1.03h1.99c-.03-.65-.23-1.21-.59-1.68-.36-.47-.83-.82-1.4-1.07-.57-.25-1.2-.37-1.87-.37-.95,0-1.76.23-2.43.7-.68.47-1.2,1.13-1.56,1.99-.36.86-.54,1.88-.54,3.07,0,1.08.18,2.02.53,2.82.36.8.87,1.42,1.53,1.87.67.44,1.46.66,2.37.66.81,0,1.52-.16,2.14-.48.62-.32,1.1-.76,1.44-1.31.35-.55.52-1.19.52-1.89,0-.67-.15-1.25-.46-1.74-.31-.49-.74-.88-1.28-1.15ZM105.44,18.74c-.17.29-.39.51-.68.68s-.6.24-.94.24c-.37,0-.69-.09-.97-.28-.28-.19-.5-.45-.66-.8-.16-.35-.23-.76-.23-1.24,0-.22.09-.43.27-.65.18-.21.42-.39.7-.52.29-.14.58-.21.89-.21.35,0,.67.07.95.2.28.13.5.33.67.59.16.26.25.59.25.99,0,.37-.08.7-.25.99Z"/>
  </g>
  <rect class="cls-1" x="116.53" y="14.66" width="2.39" height="2.37"/>
  <rect class="cls-1" x="60.11" y="14.81" width="2.23" height="2.21"/>
  <g>
    <path class="cls-1" d="M133.95,17.5c0,.59-.1,1.07-.3,1.46-.2.39-.49.67-.87.86-.38.19-.84.28-1.38.28-.81,0-1.43-.22-1.86-.65-.43-.43-.65-1.08-.65-1.96v-7.13h-1.43v6.92c0,.87.13,1.6.4,2.2.27.6.69,1.05,1.27,1.36.58.31,1.34.46,2.27.46s1.68-.15,2.26-.45c.58-.3,1.01-.74,1.28-1.32.27-.58.41-1.28.41-2.11v-7.06h-1.39v7.13Z"/>
    <path class="cls-1" d="M142.72,13.63c-.41-.19-.86-.29-1.35-.29-.41,0-.78.06-1.09.17-.32.11-.58.26-.81.45-.22.19-.39.39-.52.6v-1.12h-1.34v7.72h1.38v-5.16c0-.34.09-.63.28-.85.19-.23.44-.4.74-.51.3-.11.63-.17.98-.17.5,0,.91.15,1.23.44.32.29.47.74.47,1.34v4.91h1.38v-5.04c0-.65-.12-1.18-.37-1.59-.25-.41-.57-.71-.99-.9Z"/>
    <rect class="cls-1" x="146.22" y="10.38" width="1.42" height="1.43"/>
    <rect class="cls-1" x="146.27" y="13.45" width="1.34" height="7.72"/>
    <polygon class="cls-1" points="152.61 19.44 152.48 19.44 150.43 13.45 149.13 13.45 151.92 21.17 153.18 21.17 155.96 13.45 154.67 13.45 152.61 19.44"/>
    <path class="cls-1" d="M162.31,13.77c-.5-.31-1.12-.47-1.84-.47s-1.38.17-1.91.51c-.53.34-.93.82-1.21,1.43-.28.61-.42,1.32-.42,2.13s.15,1.52.46,2.11c.31.59.74,1.04,1.28,1.35.55.31,1.18.47,1.9.47.5,0,.98-.09,1.44-.27s.85-.45,1.17-.81c.33-.36.53-.8.62-1.32h-1.3c-.1.43-.33.76-.68.99s-.78.34-1.27.34-.92-.12-1.25-.35c-.33-.23-.57-.55-.73-.94-.16-.4-.24-.84-.24-1.32h5.53v-.51c0-.78-.13-1.46-.39-2.03-.26-.57-.64-1.01-1.15-1.32ZM158.32,16.7c0-.38.07-.75.22-1.12.15-.36.39-.66.71-.89s.72-.35,1.2-.35.85.1,1.15.31c.31.21.53.49.68.84.15.36.22.75.22,1.2h-4.19Z"/>
    <path class="cls-1" d="M169.35,13.3c-.32,0-.64.06-.94.18-.3.12-.57.3-.8.54-.23.24-.42.55-.54.91v-1.48h-1.32v7.72h1.38v-4.8c0-.32.06-.6.18-.82.12-.23.28-.41.48-.55.2-.14.44-.24.71-.29.27-.06.56-.08.87-.06.08,0,.18,0,.29.02.12.01.21.04.29.07v-1.34c-.06-.03-.14-.06-.25-.07-.11-.01-.22-.02-.34-.02Z"/>
    <path class="cls-1" d="M176.91,17.84c-.13-.19-.32-.36-.55-.51-.23-.15-.53-.28-.88-.37l-1.55-.39c-.42-.1-.75-.24-.97-.39-.22-.16-.33-.37-.33-.65,0-.41.16-.72.47-.91.31-.2.71-.29,1.2-.29s.86.11,1.13.32c.28.22.44.51.49.88h1.22c-.02-.73-.29-1.28-.81-1.65-.51-.38-1.19-.56-2.03-.56-.65,0-1.2.1-1.63.3-.44.2-.76.47-.98.81-.22.34-.33.74-.33,1.19,0,.57.19,1.02.56,1.34.37.32.87.55,1.49.7l1.6.4c.35.08.61.21.78.38.17.17.25.4.25.68,0,.4-.16.7-.48.9-.32.19-.74.29-1.26.29-.32,0-.62-.05-.89-.15-.27-.1-.5-.25-.68-.46-.18-.2-.31-.45-.37-.76h-1.25c.07.55.26,1.01.57,1.36.3.36.69.62,1.15.78.46.17.96.25,1.5.25.63,0,1.16-.09,1.6-.28.44-.19.78-.45,1.01-.79.23-.34.35-.75.35-1.22,0-.19-.03-.39-.09-.59-.06-.21-.15-.4-.29-.59Z"/>
    <rect class="cls-1" x="179.13" y="13.45" width="1.34" height="7.72"/>
    <rect class="cls-1" x="179.08" y="10.38" width="1.42" height="1.43"/>
    <path class="cls-1" d="M188.02,14.67c-.06-.13-.16-.27-.29-.43-.13-.15-.3-.3-.51-.45-.21-.14-.46-.26-.74-.36-.28-.09-.61-.14-.99-.14-.7,0-1.28.16-1.75.49-.47.33-.82.79-1.05,1.39-.23.6-.35,1.3-.35,2.1,0,1.32.29,2.32.88,3.01.58.69,1.38,1.03,2.38,1.03.45,0,.83-.06,1.14-.18s.57-.27.76-.46c.2-.19.35-.38.46-.57.11-.2.19-.37.24-.52l.15,1.58h1.06v-11.09h-1.4v4.6ZM187.51,19.54c-.34.48-.89.71-1.67.71-.7,0-1.22-.27-1.58-.8-.36-.53-.54-1.28-.54-2.25s.2-1.7.6-2.16c.4-.45.91-.68,1.54-.68.52,0,.93.11,1.24.33.31.22.54.54.68.97.14.42.22.94.22,1.54,0,1.08-.17,1.86-.5,2.33Z"/>
    <path class="cls-1" d="M196.45,13.59c-.45-.19-1-.28-1.68-.28-.62,0-1.16.09-1.62.27-.46.18-.81.44-1.06.79-.25.35-.39.77-.42,1.27h1.22c.09-.46.31-.8.65-1,.34-.2.73-.31,1.17-.31.59,0,1.03.13,1.31.41.28.28.43.65.43,1.12v.6l-1.37.04c-1.32.03-2.28.25-2.87.67s-.9,1.05-.9,1.91c0,.47.11.88.32,1.21.22.33.51.59.9.76.38.18.82.26,1.32.26.55,0,1.06-.12,1.51-.35.46-.23.84-.65,1.13-1.25l.1,1.45h1.18v-5.39c0-.54-.11-.99-.33-1.36-.22-.37-.55-.65-1-.84ZM196.45,18.63c0,.21-.06.42-.19.62-.13.2-.3.38-.51.54-.21.16-.45.29-.7.38-.26.09-.52.14-.78.14-.47,0-.86-.12-1.16-.37-.3-.24-.46-.58-.46-1.01,0-.38.1-.68.3-.91.2-.23.49-.4.89-.52.39-.11.89-.17,1.48-.18l1.14-.02v1.32Z"/>
    <path class="cls-1" d="M205.17,14.67c-.06-.13-.16-.27-.29-.43-.13-.15-.3-.3-.51-.45-.21-.14-.46-.26-.74-.36-.28-.09-.61-.14-.99-.14-.7,0-1.28.16-1.75.49-.47.33-.82.79-1.05,1.39-.23.6-.35,1.3-.35,2.1,0,1.32.29,2.32.88,3.01.58.69,1.38,1.03,2.38,1.03.45,0,.83-.06,1.14-.18s.57-.27.76-.46c.2-.19.35-.38.46-.57.11-.2.19-.37.24-.52l.15,1.58h1.06v-11.09h-1.4v4.6ZM204.67,19.54c-.34.48-.89.71-1.67.71-.7,0-1.22-.27-1.58-.8-.36-.53-.54-1.28-.54-2.25s.2-1.7.6-2.16c.4-.45.91-.68,1.54-.68.52,0,.93.11,1.24.33.31.22.54.54.68.97.14.42.22.94.22,1.54,0,1.08-.17,1.86-.5,2.33Z"/>
    <path class="cls-1" d="M215.85,10.38l-3.91,10.79h1.41l1.07-2.95h4.43l1.06,2.95h1.41l-3.9-10.79h-1.56ZM214.78,16.94l1.84-5.22,1.84,5.22h-3.68Z"/>
    <path class="cls-1" d="M227.95,18.47c0,.59-.17,1.03-.52,1.32-.35.3-.8.44-1.37.44-.63,0-1.1-.16-1.41-.47-.31-.31-.47-.72-.47-1.22v-5.1h-1.38v5.24c0,.43.08.81.24,1.14.16.33.37.6.65.82.27.22.59.38.94.5.36.11.74.17,1.14.18.36,0,.7-.05,1.02-.16.32-.11.59-.29.81-.53.23-.24.39-.55.48-.94l.14,1.48h1.1v-7.72h-1.37v5.02Z"/>
    <path class="cls-1" d="M234.16,20.1c-.13-.03-.23-.12-.29-.24-.06-.13-.09-.33-.09-.6v-4.8h1.74v-1.01h-1.74v-2.24h-1.01l-.34,2.25h-1.29v1.01h1.25v4.84c0,.41.06.76.18,1.04.12.28.32.5.62.65.29.15.71.22,1.24.22.28,0,.52-.01.71-.04.19-.03.33-.06.43-.09v-.93h-.84c-.24,0-.43-.02-.57-.05Z"/>
    <polygon class="cls-1" points="242.79 10.38 241.22 10.38 239.68 12.55 240.75 12.55 242.79 10.38"/>
    <path class="cls-1" d="M242.15,13.77c-.52-.31-1.14-.47-1.85-.47-.76,0-1.41.17-1.93.5-.53.34-.93.81-1.2,1.41-.27.61-.41,1.31-.41,2.12,0,.86.15,1.58.44,2.17s.71,1.04,1.24,1.35c.53.31,1.15.46,1.86.46.77,0,1.41-.17,1.93-.5s.91-.8,1.18-1.4c.27-.6.4-1.29.4-2.07,0-.87-.15-1.6-.44-2.2-.29-.6-.7-1.06-1.22-1.37ZM242.19,18.87c-.17.44-.41.77-.73,1.01-.32.23-.71.35-1.16.35-.51,0-.93-.13-1.25-.39s-.55-.61-.7-1.05c-.15-.44-.22-.94-.22-1.48,0-.61.08-1.14.25-1.57.17-.44.41-.77.74-1,.32-.23.72-.35,1.19-.35.51,0,.92.13,1.23.39.31.26.54.61.69,1.05s.22.94.22,1.49c0,.6-.08,1.12-.25,1.56Z"/>
    <path class="cls-1" d="M250.75,13.63c-.41-.19-.86-.29-1.35-.29-.41,0-.78.06-1.09.17-.32.11-.58.26-.81.45-.22.19-.39.39-.52.6v-1.12h-1.34v7.72h1.38v-5.16c0-.34.09-.63.28-.85.19-.23.44-.4.74-.51s.63-.17.98-.17c.5,0,.91.15,1.23.44.32.29.47.74.47,1.34v4.91h1.38v-5.04c0-.65-.12-1.18-.37-1.59-.25-.41-.57-.71-.98-.9Z"/>
    <path class="cls-1" d="M259.2,13.77c-.52-.31-1.14-.47-1.85-.47-.76,0-1.41.17-1.93.5s-.93.81-1.2,1.41c-.27.61-.41,1.31-.41,2.12,0,.86.15,1.58.44,2.17.29.59.71,1.04,1.23,1.35s1.15.46,1.86.46c.77,0,1.41-.17,1.93-.5.52-.34.91-.8,1.18-1.4.27-.6.4-1.29.4-2.07,0-.87-.15-1.6-.44-2.2-.29-.6-.7-1.06-1.22-1.37ZM259.25,18.87c-.17.44-.41.77-.73,1.01s-.71.35-1.16.35c-.51,0-.93-.13-1.25-.39-.32-.26-.55-.61-.7-1.05s-.22-.94-.22-1.48c0-.61.08-1.14.25-1.57.17-.44.41-.77.74-1s.72-.35,1.19-.35c.51,0,.92.13,1.23.39.31.26.54.61.69,1.05.15.44.22.94.22,1.49,0,.6-.08,1.12-.25,1.56Z"/>
    <path class="cls-1" d="M272.6,13.86c-.25-.21-.52-.35-.82-.43s-.57-.12-.84-.12c-.51,0-.97.12-1.38.35-.41.23-.73.54-.97.91-.13-.27-.32-.5-.57-.69-.24-.19-.51-.33-.8-.43-.29-.09-.58-.14-.85-.14-.6,0-1.08.13-1.46.38-.37.25-.67.55-.88.89v-1.12h-1.34v7.72h1.38v-5.16c0-.36.09-.65.27-.88.18-.23.41-.4.67-.5.27-.1.53-.16.79-.16.24,0,.48.05.72.16.24.1.44.26.6.46.16.2.24.46.24.76v5.31h1.37v-5.16c0-.39.09-.69.28-.92.19-.22.42-.38.69-.48.27-.09.52-.14.76-.14.27,0,.53.05.77.16.24.1.44.28.59.54.15.26.22.62.22,1.09v4.91h1.39v-5.04c0-.57-.08-1.04-.24-1.41s-.36-.65-.62-.86Z"/>
    <path class="cls-1" d="M280.35,13.59c-.45-.19-1-.28-1.68-.28-.62,0-1.16.09-1.62.27-.46.18-.81.44-1.06.79-.25.35-.39.77-.42,1.27h1.22c.09-.46.31-.8.65-1,.34-.2.73-.31,1.17-.31.59,0,1.03.13,1.31.41s.43.65.43,1.12v.6l-1.37.04c-1.32.03-2.28.25-2.87.67s-.9,1.05-.9,1.91c0,.47.11.88.32,1.21.22.33.51.59.9.76s.82.26,1.32.26c.55,0,1.06-.12,1.51-.35.46-.23.84-.65,1.13-1.25l.1,1.45h1.18v-5.39c0-.54-.11-.99-.33-1.36s-.55-.65-1-.84ZM280.34,18.63c0,.21-.06.42-.19.62-.13.2-.3.38-.51.54s-.45.29-.7.38-.52.14-.78.14c-.47,0-.86-.12-1.16-.37-.3-.24-.46-.58-.46-1.01,0-.38.1-.68.3-.91.2-.23.49-.4.89-.52.39-.11.89-.17,1.48-.18l1.14-.02v1.32Z"/>
    <path class="cls-1" d="M292.5,14.67c-.06-.13-.16-.27-.29-.43-.13-.15-.3-.3-.51-.45-.21-.14-.46-.26-.74-.36-.28-.09-.61-.14-.99-.14-.7,0-1.28.16-1.75.49s-.82.79-1.05,1.39-.35,1.3-.35,2.1c0,1.32.29,2.32.88,3.01.58.69,1.38,1.03,2.38,1.03.45,0,.83-.06,1.14-.18.31-.12.57-.27.76-.46.2-.19.35-.38.46-.57.11-.2.19-.37.24-.52l.15,1.58h1.06v-11.09h-1.4v4.6ZM292,19.54c-.34.48-.89.71-1.67.71-.7,0-1.22-.27-1.58-.8-.36-.53-.54-1.28-.54-2.25s.2-1.7.6-2.16c.4-.45.91-.68,1.54-.68.52,0,.93.11,1.24.33.31.22.54.54.68.97.14.42.22.94.22,1.54,0,1.08-.17,1.86-.5,2.33Z"/>
    <path class="cls-1" d="M301.18,13.77c-.5-.31-1.12-.47-1.84-.47s-1.38.17-1.91.51c-.53.34-.93.82-1.21,1.43-.28.61-.42,1.32-.42,2.13s.15,1.52.46,2.11c.31.59.74,1.04,1.28,1.35.55.31,1.18.47,1.9.47.5,0,.98-.09,1.44-.27.46-.18.85-.45,1.17-.81.33-.36.53-.8.62-1.32h-1.3c-.1.43-.33.76-.68.99-.36.23-.78.34-1.27.34s-.92-.12-1.25-.35c-.33-.23-.57-.55-.74-.94-.16-.4-.24-.84-.24-1.32h5.53v-.51c0-.78-.13-1.46-.39-2.03-.26-.57-.64-1.01-1.15-1.32ZM297.19,16.7c0-.38.07-.75.22-1.12.15-.36.39-.66.71-.89s.72-.35,1.2-.35.85.1,1.15.31c.31.21.53.49.68.84.15.36.22.75.22,1.2h-4.19Z"/>
    <path class="cls-1" d="M311.54,10.38l-3.91,10.79h1.41l1.07-2.95h4.43l1.06,2.95h1.41l-3.9-10.79h-1.56ZM310.47,16.94l1.84-5.22,1.84,5.22h-3.68Z"/>
    <path class="cls-1" d="M325.04,13.61c-.21.08-.4.16-.57.24-.17.07-.3.13-.38.16-.29-.21-.61-.38-.95-.5-.34-.12-.76-.18-1.26-.18-.7,0-1.3.1-1.8.29-.5.2-.89.48-1.16.85-.27.37-.4.8-.4,1.3,0,.44.13.85.38,1.23.25.38.61.68,1.06.91-.45.1-.79.25-1.02.46-.23.2-.34.43-.34.67,0,.2.05.36.15.49.1.12.21.22.33.3.12.07.23.14.31.19-.04.03-.14.09-.3.17-.15.08-.32.18-.5.31-.18.13-.33.29-.46.49-.13.2-.19.43-.19.71,0,.65.34,1.15,1.01,1.5.68.35,1.62.53,2.83.53,1.28,0,2.24-.22,2.86-.66s.94-1.01.94-1.72c0-.62-.22-1.11-.66-1.47-.44-.36-1.06-.57-1.87-.62-.35-.02-.67-.04-.96-.06-.29-.01-.53-.03-.72-.04-.53-.04-.91-.09-1.13-.14-.22-.05-.34-.15-.34-.3,0-.12.1-.24.29-.34.2-.1.56-.16,1.09-.18.06,0,.14,0,.23.01s.17,0,.23,0c.72,0,1.31-.11,1.79-.33.48-.22.83-.51,1.07-.88.24-.37.35-.78.35-1.23,0-.16-.02-.34-.07-.53-.04-.19-.11-.36-.19-.52l1.35-.25v-1.28c-.1.04-.25.1-.43.18-.18.08-.38.16-.58.24ZM320.04,20.45c.21-.11.41-.16.6-.15l2.16.14c.47.03.83.14,1.06.34.23.2.35.45.35.75,0,.43-.19.76-.57.97s-.93.32-1.64.32c-.93,0-1.61-.11-2.05-.34-.44-.23-.66-.55-.66-.96,0-.24.07-.45.22-.64.14-.19.32-.34.53-.44ZM323.12,16.94c-.34.26-.79.39-1.34.39-.6,0-1.06-.13-1.39-.4-.33-.27-.5-.65-.5-1.13,0-.52.17-.91.52-1.19.35-.28.8-.41,1.37-.41s1,.14,1.34.41c.34.28.51.67.51,1.19s-.17.89-.51,1.15Z"/>
    <path class="cls-1" d="M332.59,18.47c0,.59-.17,1.03-.52,1.32-.35.3-.8.44-1.37.44-.63,0-1.1-.16-1.41-.47-.31-.31-.47-.72-.47-1.22v-5.1h-1.38v5.24c0,.43.08.81.23,1.14.16.33.37.6.65.82.27.22.59.38.94.5.36.11.74.17,1.14.18.36,0,.7-.05,1.02-.16.32-.11.59-.29.81-.53.23-.24.39-.55.48-.94l.14,1.48h1.1v-7.72h-1.37v5.02Z"/>
    <path class="cls-1" d="M341,13.59c-.45-.19-1-.28-1.68-.28-.62,0-1.16.09-1.62.27-.46.18-.81.44-1.06.79-.25.35-.39.77-.42,1.27h1.22c.09-.46.31-.8.65-1,.34-.2.73-.31,1.17-.31.59,0,1.03.13,1.31.41.28.28.43.65.43,1.12v.6l-1.37.04c-1.32.03-2.28.25-2.87.67-.6.42-.9,1.05-.9,1.91,0,.47.11.88.32,1.21s.51.59.9.76.82.26,1.32.26c.55,0,1.06-.12,1.51-.35s.84-.65,1.13-1.25l.1,1.45h1.18v-5.39c0-.54-.11-.99-.33-1.36-.22-.37-.55-.65-1-.84ZM341,18.63c0,.21-.06.42-.19.62-.13.2-.3.38-.51.54-.21.16-.45.29-.7.38-.26.09-.52.14-.78.14-.47,0-.86-.12-1.16-.37-.3-.24-.46-.58-.46-1.01,0-.38.1-.68.3-.91.2-.23.49-.4.89-.52.39-.11.89-.17,1.48-.18l1.14-.02v1.32Z"/>
    <path class="cls-1" d="M349.79,17.84c-.13-.19-.32-.36-.55-.51s-.53-.28-.88-.37l-1.55-.39c-.42-.1-.75-.24-.97-.39-.22-.16-.33-.37-.33-.65,0-.41.16-.72.47-.91.31-.2.71-.29,1.2-.29s.86.11,1.13.32c.28.22.44.51.49.88h1.22c-.02-.73-.29-1.28-.81-1.65-.51-.38-1.19-.56-2.03-.56-.65,0-1.2.1-1.63.3-.44.2-.76.47-.98.81-.22.34-.33.74-.33,1.19,0,.57.19,1.02.56,1.34.37.32.87.55,1.49.7l1.6.4c.35.08.61.21.78.38s.25.4.25.68c0,.4-.16.7-.48.9-.32.19-.74.29-1.26.29-.32,0-.62-.05-.89-.15s-.5-.25-.68-.46c-.18-.2-.31-.45-.37-.76h-1.25c.07.55.26,1.01.57,1.36.3.36.69.62,1.15.78.46.17.96.25,1.5.25.63,0,1.16-.09,1.6-.28.44-.19.78-.45,1.01-.79.23-.34.35-.75.35-1.22,0-.19-.03-.39-.09-.59-.06-.21-.15-.4-.29-.59Z"/>
    <path class="cls-1" d="M355.08,14.41c.35,0,.66.07.92.2.26.13.47.31.63.54s.26.47.31.75h1.22c-.06-.53-.24-.99-.52-1.38-.28-.39-.65-.69-1.09-.9-.44-.21-.94-.32-1.49-.32-.76,0-1.4.17-1.93.51-.53.34-.93.81-1.21,1.41-.28.6-.41,1.31-.41,2.12,0,.86.15,1.59.45,2.18.3.59.72,1.04,1.25,1.34.53.3,1.15.46,1.85.46.54,0,1.03-.1,1.47-.31.44-.21.8-.5,1.09-.88.29-.38.46-.83.53-1.34h-1.2c-.04.26-.15.5-.31.73-.16.23-.37.41-.63.54s-.57.21-.92.21c-.74,0-1.3-.27-1.68-.8s-.57-1.25-.57-2.14c0-.99.21-1.72.62-2.19.42-.48.95-.72,1.62-.72Z"/>
    <path class="cls-1" d="M364.75,13.59c-.45-.19-1-.28-1.68-.28-.62,0-1.16.09-1.62.27-.46.18-.81.44-1.06.79-.25.35-.39.77-.42,1.27h1.22c.09-.46.31-.8.65-1,.34-.2.73-.31,1.17-.31.59,0,1.03.13,1.31.41.28.28.43.65.43,1.12v.6l-1.37.04c-1.32.03-2.28.25-2.87.67-.6.42-.9,1.05-.9,1.91,0,.47.11.88.32,1.21s.51.59.9.76.82.26,1.32.26c.55,0,1.06-.12,1.51-.35s.84-.65,1.13-1.25l.1,1.45h1.18v-5.39c0-.54-.11-.99-.33-1.36-.22-.37-.55-.65-1-.84ZM364.74,18.63c0,.21-.06.42-.19.62-.13.2-.3.38-.51.54-.21.16-.45.29-.7.38-.26.09-.52.14-.78.14-.47,0-.86-.12-1.16-.37-.3-.24-.46-.58-.46-1.01,0-.38.1-.68.3-.91.2-.23.49-.4.89-.52.39-.11.89-.17,1.48-.18l1.14-.02v1.32Z"/>
    <path class="cls-1" d="M369.82,19.92c-.15-.19-.23-.49-.23-.87v-8.97h-1.37v9.1c0,.27.02.53.07.78.05.25.14.47.28.67s.33.35.59.46c.26.11.59.17,1.01.17.1,0,.21-.01.34-.03.12-.02.24-.05.36-.09v-.9h-.42c-.27-.03-.49-.13-.64-.33Z"/>
    <rect class="cls-1" x="372.67" y="10.38" width="1.42" height="1.43"/>
    <rect class="cls-1" x="372.72" y="13.45" width="1.34" height="7.72"/>
    <path class="cls-1" d="M381.38,13.77c-.5-.31-1.12-.47-1.84-.47s-1.38.17-1.91.51c-.53.34-.93.82-1.21,1.43-.28.61-.42,1.32-.42,2.13s.15,1.52.46,2.11c.31.59.74,1.04,1.28,1.35.55.31,1.18.47,1.9.47.5,0,.98-.09,1.44-.27.46-.18.85-.45,1.17-.81.33-.36.53-.8.62-1.32h-1.3c-.1.43-.33.76-.68.99-.36.23-.78.34-1.27.34s-.92-.12-1.25-.35c-.33-.23-.57-.55-.74-.94-.16-.4-.24-.84-.24-1.32h5.53v-.51c0-.78-.13-1.46-.39-2.03-.26-.57-.64-1.01-1.15-1.32ZM377.4,16.7c0-.38.07-.75.22-1.12.15-.36.39-.66.71-.89s.72-.35,1.2-.35.85.1,1.15.31c.31.21.53.49.68.84.15.36.22.75.22,1.2h-4.19Z"/>
    <path class="cls-1" d="M389.93,13.63c-.41-.19-.86-.29-1.35-.29-.41,0-.78.06-1.09.17-.32.11-.58.26-.81.45-.22.19-.39.39-.52.6v-1.12h-1.34v7.72h1.38v-5.16c0-.34.09-.63.28-.85.19-.23.44-.4.74-.51s.63-.17.98-.17c.5,0,.91.15,1.23.44.32.29.47.74.47,1.34v4.91h1.38v-5.04c0-.65-.12-1.18-.37-1.59-.25-.41-.57-.71-.99-.9Z"/>
    <path class="cls-1" d="M395.68,20.1c-.13-.03-.23-.12-.29-.24-.06-.13-.09-.33-.09-.6v-4.8h1.74v-1.01h-1.74v-2.24h-1.01l-.34,2.25h-1.29v1.01h1.25v4.84c0,.41.06.76.18,1.04.12.28.32.5.62.65.29.15.71.22,1.24.22.28,0,.52-.01.71-.04.19-.03.33-.06.43-.09v-.93h-.84c-.24,0-.43-.02-.57-.05Z"/>
    <path class="cls-1" d="M403.73,13.77c-.5-.31-1.12-.47-1.84-.47s-1.38.17-1.91.51c-.53.34-.93.82-1.21,1.43-.28.61-.42,1.32-.42,2.13s.15,1.52.46,2.11c.31.59.74,1.04,1.28,1.35.55.31,1.18.47,1.9.47.5,0,.98-.09,1.44-.27.46-.18.85-.45,1.17-.81.33-.36.53-.8.62-1.32h-1.3c-.1.43-.33.76-.68.99-.36.23-.78.34-1.27.34s-.92-.12-1.25-.35c-.33-.23-.57-.55-.74-.94-.16-.4-.24-.84-.24-1.32h5.53v-.51c0-.78-.13-1.46-.39-2.03-.26-.57-.64-1.01-1.15-1.32ZM399.75,16.7c0-.38.07-.75.22-1.12.15-.36.39-.66.71-.89s.72-.35,1.2-.35.85.1,1.15.31c.31.21.53.49.68.84.15.36.22.75.22,1.2h-4.19Z"/>
    <path class="cls-1" d="M412.5,17.84c-.13-.19-.32-.36-.55-.51s-.53-.28-.88-.37l-1.55-.39c-.42-.1-.75-.24-.97-.39-.22-.16-.33-.37-.33-.65,0-.41.16-.72.47-.91.31-.2.71-.29,1.2-.29s.86.11,1.13.32c.28.22.44.51.49.88h1.22c-.02-.73-.29-1.28-.81-1.65-.51-.38-1.19-.56-2.03-.56-.65,0-1.2.1-1.63.3-.44.2-.76.47-.98.81-.22.34-.33.74-.33,1.19,0,.57.19,1.02.56,1.34.37.32.87.55,1.49.7l1.6.4c.35.08.61.21.78.38s.25.4.25.68c0,.4-.16.7-.48.9-.32.19-.74.29-1.26.29-.32,0-.62-.05-.89-.15s-.5-.25-.68-.46c-.18-.2-.31-.45-.37-.76h-1.25c.07.55.26,1.01.57,1.36.3.36.69.62,1.15.78.46.17.96.25,1.5.25.63,0,1.16-.09,1.6-.28.44-.19.78-.45,1.01-.79.23-.34.35-.75.35-1.22,0-.19-.03-.39-.09-.59-.06-.21-.15-.4-.29-.59Z"/>
    <rect class="cls-1" x="414.36" y="19.41" width="1.64" height="1.76"/>
  </g>
</svg>